# xmcd CD database file
#
# Track frame offsets:
#	150
#	25432
#	47272
#	61125
#	80790
#	102222
#	127387
#	140067
#	161570
#	180187
#	204192
#	226042
#	246910
#
# Disc length: 3604 seconds
#
# Revision: 0
# Processed by: cddbd v1.5.2PL0 Copyright (c) Steve Scherf et al.
# Submitted via: CDex 1.70beta1
#
DISCID=a90e120d
DTITLE=Sweet Jazz Trio - My Romance
DYEAR=2005
DGENRE=Jazz
TTITLE0=I Thought About You
TTITLE1=I Only Have Eyes For You
TTITLE2=Georgia On My Mind
TTITLE3=Topsy
TTITLE4=Little Old Lady
TTITLE5=Laverne Walk
TTITLE6=Warm Valley
TTITLE7=Struttin' With Some Barbecue
TTITLE8=Ooh, That Kiss
TTITLE9=All My Life
TTITLE10=Two Little Pearls
TTITLE11=I'm Getting Sentimental Over You
TTITLE12=My Romance
EXTD=YEAR: 2005
EXTT0=
EXTT1=
EXTT2=
EXTT3=
EXTT4=
EXTT5=
EXTT6=
EXTT7=
EXTT8=
EXTT9=
EXTT10=
EXTT11=
EXTT12=
PLAYORDER=
